#!OML:ASF G:\JayActor3\Patient Classification 1\Patient 1\Session 2\male.ASF
:FULLY-SPECIFIED
:DEGREES
2785
root 49.4579 16.8431 -6.53021 2166.17 -19.7 -364.26
lowerback 6.08107 -0.110042 -4.78818
upperback 3.47407 -0.412266 -1.01346
thorax 0.20291 -0.271525 1.66533
lowerneck -9.30335 -6.95655 -7.04399
upperneck 26.4583 -12.5059 13.6262
head 11.4721 -5.04771 4.54067
rclavicle -6.12257e-014 1.59028e-014
rhumerus -36.4724 1.32809 -81.1148
rradius 47.7852
rwrist 3.93456
rhand -27.2073 7.28817
rfingers 7.12502
rthumb -0.620275 -22.6907
lclavicle -6.12257e-014 1.59028e-014
lhumerus -25.0078 -3.87717 76.2785
lradius 29.7471
lwrist 10.5239
lhand -21.2052 19.2322
lfingers 7.12502
lthumb 5.1762 49.149
rfemur -25.0288 15.6742 18.813
rtibia 30.8044
rfoot 2.78141 24.074
rtoes 25.3803
lfemur -9.93297 -0.328283 -15.1821
ltibia 22.2874
lfoot -10.4187 -9.45968
ltoes 1.07791
2786
root 49.5052 16.8506 -6.54515 2166.38 -20.9196 -364.428
lowerback 6.04345 -0.122242 -4.84554
upperback 3.50162 -0.429591 -1.04111
thorax 0.253831 -0.282848 1.66948
lowerneck -9.26413 -6.96133 -7.17242
upperneck 26.3624 -12.4902 13.6473
head 11.435 -5.06009 4.5705
rclavicle 3.57812e-015 1.59028e-014
rhumerus -36.6019 1.2736 -81.1733
rradius 47.7675
rwrist 3.88289
rhand -27.2615 7.22355
rfingers 7.12502
rthumb -0.672649 -22.7551
lclavicle 3.57812e-015 1.59028e-014
lhumerus -24.6191 -3.84133 75.9664
lradius 29.7475
lwrist 10.5879
lhand -21.3364 19.3055
lfingers 7.12502
lthumb 5.04958 49.2253
rfemur -25.1686 15.2288 19.0603
rtibia 30.8407
rfoot 1.10248 23.9253
rtoes 23.6996
lfemur -9.90856 0.28856 -15.2726
ltibia 22.1815
lfoot -10.5767 -8.7682
ltoes 0.719108
2787
root 49.552 16.8565 -6.55881 2166.57 -22.1376 -364.583
lowerback 6.01264 -0.120537 -4.88371
upperback 3.52268 -0.428206 -1.08642
thorax 0.292675 -0.284075 1.64376
lowerneck -9.22247 -6.97076 -7.28641
upperneck 26.282 -12.4858 13.6655
head 11.4037 -5.07595 4.59561
rclavicle 6.52014e-014 -1.43125e-014
rhumerus -36.7613 1.22018 -81.2533
rradius 47.7546
rwrist 3.85766
rhand -27.2741 7.15354
rfingers 7.12502
rthumb -0.684831 -22.8251
lclavicle 6.52014e-014 -1.43125e-014
lhumerus -24.2446 -3.84207 75.6454
lradius 29.7775
lwrist 10.6232
lhand -21.3914 19.3441
lfingers 7.12502
lthumb 4.99643 49.2652
rfemur -25.2488 14.7329 19.3236
rtibia 30.9344
rfoot -0.831117 23.6658
rtoes 21.3656
lfemur -9.86576 0.79778 -15.3925
ltibia 22.085
lfoot -10.7567 -7.96721
ltoes 0.439368
2788
root 49.5979 16.8609 -6.57103 2166.74 -23.3664 -364.721
lowerback 5.98592 -0.106315 -4.91721
upperback 3.53448 -0.410589 -1.14302
thorax 0.318476 -0.276616 1.60298
lowerneck -9.16502 -6.98072 -7.37504
upperneck 26.2092 -12.4818 13.6591
head 11.3686 -5.09239 4.60771
rclavicle 9.93923e-015 4.77083e-015
rhumerus -36.9508 1.18903 -81.3486
rradius 47.7446
rwrist 3.86196
rhand -27.2401 7.09689
rfingers 7.12502
rthumb -0.652028 -22.8819
lclavicle 9.93923e-015 4.77083e-015
lhumerus -23.8966 -3.85864 75.3203
lradius 29.833
lwrist 10.6307
lhand -21.3739 19.3616
lfingers 7.12502
lthumb 5.01334 49.2823
rfemur -25.2747 14.2071 19.5919
rtibia 31.0911
rfoot -2.97566 23.2525
rtoes 18.34
lfemur -9.79708 1.20674 -15.5432
ltibia 21.9948
lfoot -10.9588 -7.06654
ltoes 0.22856
2789
root 49.6433 16.8643 -6.58239 2166.89 -24.6054 -364.835
lowerback 5.95547 -0.0854232 -4.95811
upperback 3.53583 -0.384604 -1.20515
thorax 0.335074 -0.264671 1.56024
lowerneck -9.11319 -6.99342 -7.44777
upperneck 26.154 -12.4791 13.6237
head 11.3382 -5.10983 4.60631
rclavicle 3.29983e-014 -1.59028e-014
rhumerus -37.1496 1.20162 -81.4553
rradius 47.7269
rwrist 3.88958
rhand -27.1449 7.05293
rfingers 7.12502
rthumb -0.560084 -22.9261
lclavicle 3.29983e-014 -1.59028e-014
lhumerus -23.5661 -3.84309 74.9926
lradius 29.8946
lwrist 10.5909
lhand -21.3141 19.3435
lfingers 7.12502
lthumb 5.07104 49.2628
rfemur -25.2708 13.6787 19.8406
rtibia 31.3165
rfoot -5.2865 22.6163
rtoes 14.5735
lfemur -9.71388 1.53726 -15.7248
ltibia 21.9005
lfoot -11.1697 -6.10156
ltoes 0.105897
2790
root 49.6879 16.8672 -6.593 2167.02 -25.8556 -364.924
lowerback 5.9266 -0.058439 -5.0171
upperback 3.52932 -0.351793 -1.26984
thorax 0.342447 -0.249248 1.52465
lowerneck -9.07162 -7.00565 -7.50946
upperneck 26.1153 -12.4725 13.5628
head 11.313 -5.12592 4.59414
rclavicle -5.28767e-014 -1.59028e-015
rhumerus -37.3438 1.25251 -81.5653
rradius 47.6891
rwrist 3.92319
rhand -26.9641 7.06116
rfingers 7.12502
rthumb -0.385388 -22.9182
lclavicle -5.28767e-014 -1.59028e-015
lhumerus -23.2568 -3.7925 74.6688
lradius 29.9643
lwrist 10.5297
lhand -21.2576 19.2931
lfingers 7.12502
lthumb 5.12562 49.2111
rfemur -25.2389 13.1654 20.0616
rtibia 31.6158
rfoot -7.68652 21.6977
rtoes 10.3602
lfemur -9.60561 1.83428 -15.9315
ltibia 21.7921
lfoot -11.3814 -5.12256
ltoes 0.0395299
2791
root 49.732 16.8699 -6.60308 2167.14 -27.1141 -364.991
lowerback 5.88896 -0.0299963 -5.09386
upperback 3.52403 -0.317285 -1.33493
thorax 0.356062 -0.233419 1.49846
lowerneck -9.04599 -7.01558 -7.54868
upperneck 26.0786 -12.4592 13.4769
head 11.2874 -5.1383 4.56925
rclavicle -3.10104e-014 -1.11319e-014
rhumerus -37.5027 1.34491 -81.6803
rradius 47.6165
rwrist 3.96121
rhand -26.7491 7.08502
rfingers 7.12502
rthumb -0.177795 -22.8946
lclavicle -3.10104e-014 -1.11319e-014
lhumerus -22.9547 -3.69098 74.3477
lradius 30.0386
lwrist 10.4532
lhand -21.2145 19.2328
lfingers 7.12502
lthumb 5.16725 49.1498
rfemur -25.189 12.6805 20.2525
rtibia 31.9892
rfoot -10.1133 20.4264
rtoes 5.88348
lfemur -9.47955 2.13546 -16.155
ltibia 21.6688
lfoot -11.5852 -4.17032
ltoes -0.0137894
2792
root 49.7759 16.8721 -6.61247 2167.23 -28.3806 -365.04
lowerback 5.85072 0.00342824 -5.18519
upperback 3.52002 -0.276761 -1.39946
thorax 0.371106 -0.214902 1.48067
lowerneck -9.02908 -7.02343 -7.56466
upperneck 26.0374 -12.4412 13.3739
head 11.2584 -5.14754 4.53425
rclavicle -5.1684e-014 0
rhumerus -37.6235 1.45657 -81.7947
rradius 47.4993
rwrist 4.00219
rhand -26.5285 7.12559
rfingers 7.12502
rthumb 0.0353007 -22.8541
lclavicle -5.1684e-014 0
lhumerus -22.6555 -3.53408 74.0358
lradius 30.1066
lwrist 10.3651
lhand -21.2213 19.1746
lfingers 7.12502
lthumb 5.16072 49.0918
rfemur -25.1156 12.2121 20.4207
rtibia 32.4336
rfoot -12.4967 18.748
rtoes 1.41178
lfemur -9.33354 2.47362 -16.3895
ltibia 21.5335
lfoot -11.7809 -3.26569
ltoes -0.174653
2793
root 49.8194 16.8737 -6.62129 2167.32 -29.6538 -365.088
lowerback 5.81246 0.0403895 -5.27174
upperback 3.51507 -0.231289 -1.46203
thorax 0.384803 -0.193842 1.46199
lowerneck -9.00341 -7.02436 -7.55823
upperneck 25.9749 -12.4147 13.271
head 11.2169 -5.15158 4.49657
rclavicle 5.00937e-014 4.13472e-014
rhumerus -37.7056 1.57768 -81.9101
rradius 47.3386
rwrist 4.05373
rhand -26.3685 7.10478
rfingers 7.12502
rthumb 0.189837 -22.8749
lclavicle 5.00937e-014 4.13472e-014
lhumerus -22.3661 -3.33509 73.7298
lradius 30.1735
lwrist 10.2834
lhand -21.2691 19.1232
lfingers 7.12502
lthumb 5.11451 49.0415
rfemur -25.0223 11.7507 20.5878
rtibia 32.9397
rfoot -14.7527 16.6442
rtoes -3.05179
lfemur -9.18072 2.8596 -16.6149
ltibia 21.398
lfoot -11.957 -2.43034
ltoes -0.367682
2794
root 49.8625 16.8745 -6.62892 2167.39 -30.935 -365.131
lowerback 5.77338 0.0842262 -5.35624
upperback 3.51186 -0.176453 -1.52489
thorax 0.400125 -0.168186 1.44139
lowerneck -8.96616 -7.01972 -7.53785
upperneck 25.8895 -12.383 13.1795
head 11.1638 -5.15183 4.46137
rclavicle -1.06946e-013 3.02153e-014
rhumerus -37.7539 1.6936 -82.0198
rradius 47.141
rwrist 4.10653
rhand -26.2974 7.04957
rfingers 7.12502
rthumb 0.258533 -22.93
lclavicle -1.06946e-013 3.02153e-014
lhumerus -22.0868 -3.10404 73.4332
lradius 30.2373
lwrist 10.2023
lhand -21.3064 19.0586
lfingers 7.12502
lthumb 5.07847 48.9777
rfemur -24.8978 11.2871 20.748
rtibia 33.4963
rfoot -16.6801 14.267
rtoes -6.62632
lfemur -9.01667 3.29183 -16.8394
ltibia 21.2696
lfoot -12.122 -1.65337
ltoes -0.629585
